<svg width="252" height="252" xmlns="http://www.w3.org/2000/svg" xmlns:xlink="http://www.w3.org/1999/xlink" overflow="hidden"><defs><clipPath id="clip0"><rect x="0" y="0" width="252" height="252"/></clipPath></defs><g clip-path="url(#clip0)"><path d="M43.3125 217.35C41.475 219.188 39.1125 219.712 36.75 218.663 34.3875 217.613 33.075 215.512 33.075 213.15 33.075 210.788 34.65 208.425 36.75 207.637 39.1125 206.587 41.475 207.113 43.3125 208.95 45.675 211.05 45.675 214.988 43.3125 217.35ZM228.637 44.3625 207.375 65.625 190.575 61.1625 186.375 44.625 207.637 23.3625C195.038 18.6375 180.863 21.525 170.887 30.45 160.912 39.6375 156.975 53.2875 160.387 66.4125L26.5125 200.288C21.7875 204.75 19.95 211.575 21.525 217.875 23.1 224.175 28.0875 229.163 34.3875 230.738 40.6875 232.313 47.25 230.475 51.975 225.75L185.85 91.875C198.975 95.2875 212.625 91.35 221.813 81.375 230.738 71.4 233.625 56.9625 228.637 44.3625Z" stroke="#FFFFFF" stroke-width="2.62499"/><path d="M227.587 200.288 159.863 132.563 132.563 159.863 198.188 225.488 200.55 227.85 200.813 227.587C208.425 233.1 218.925 232.05 225.488 225.488 232.05 218.663 232.837 208.163 227.587 200.288L227.587 200.288Z" stroke="#FFFFFF" stroke-width="2.62499"/><path d="M59.325 51.975 59.5875 51.7125 52.7625 39.1125 30.1875 21 21 30.1875 39.1125 52.7625 51.7125 59.5875 51.975 59.325 102.113 109.463 109.463 102.113Z" stroke="#FFFFFF" stroke-width="2.62499"/></g></svg>